<?xml version="1.0" encoding="UTF-8" standalone="no"?>
<svg
   xmlns:dc="http://purl.org/dc/elements/1.1/"
   xmlns:cc="http://creativecommons.org/ns#"
   xmlns:rdf="http://www.w3.org/1999/02/22-rdf-syntax-ns#"
   xmlns:svg="http://www.w3.org/2000/svg"
   xmlns="http://www.w3.org/2000/svg"
   xmlns:xlink="http://www.w3.org/1999/xlink"
   xmlns:sodipodi="http://sodipodi.sourceforge.net/DTD/sodipodi-0.dtd"
   xmlns:inkscape="http://www.inkscape.org/namespaces/inkscape"
   viewBox="0 0 500 499.98843"
   version="1.1"
   id="svg119"
   sodipodi:docname="basketball.svg"
   width="500"
   height="499.98843"
   inkscape:version="0.92.4 (5da689c313, 2019-01-14)">
  <metadata
     id="metadata123">
    <rdf:RDF>
      <cc:Work
         rdf:about="">
        <dc:format>image/svg+xml</dc:format>
        <dc:type
           rdf:resource="http://purl.org/dc/dcmitype/StillImage" />
        <dc:title></dc:title>
      </cc:Work>
    </rdf:RDF>
  </metadata>
  <sodipodi:namedview
     pagecolor="#ffffff"
     bordercolor="#666666"
     borderopacity="1"
     objecttolerance="10"
     gridtolerance="10"
     guidetolerance="10"
     inkscape:pageopacity="0"
     inkscape:pageshadow="2"
     inkscape:window-width="1920"
     inkscape:window-height="1017"
     id="namedview121"
     showgrid="false"
     inkscape:zoom="1.2756757"
     inkscape:cx="315.8927"
     inkscape:cy="310.06873"
     inkscape:window-x="-8"
     inkscape:window-y="-8"
     inkscape:window-maximized="1"
     inkscape:current-layer="svg119" />
  <defs
     id="defs65">
    <linearGradient
       inkscape:collect="always"
       id="linearGradient1103">
      <stop
         style="stop-color:#000000;stop-opacity:1;"
         offset="0"
         id="stop1099" />
      <stop
         style="stop-color:#000000;stop-opacity:0;"
         offset="1"
         id="stop1101" />
    </linearGradient>
    <linearGradient
       id="c">
      <stop
         stop-color="#fc9f59"
         offset="0"
         id="stop2" />
      <stop
         stop-color="#fc9f59"
         stop-opacity="0"
         offset="1"
         id="stop4" />
    </linearGradient>
    <linearGradient
       id="a">
      <stop
         stop-color="#a1420e"
         offset="0"
         id="stop7" />
      <stop
         stop-color="#a1420e"
         stop-opacity="0"
         offset="1"
         id="stop9" />
    </linearGradient>
    <linearGradient
       id="b">
      <stop
         stop-color="#a1420d"
         offset="0"
         id="stop12" />
      <stop
         stop-color="#a1420d"
         stop-opacity="0"
         offset="1"
         id="stop14" />
    </linearGradient>
    <linearGradient
       id="s"
       x1="153.49001"
       x2="233.78"
       y1="94.793999"
       y2="86.970001"
       gradientUnits="userSpaceOnUse">
      <stop
         stop-color="#f57936"
         offset="0"
         id="stop17" />
      <stop
         stop-color="#f57936"
         stop-opacity="0"
         offset="1"
         id="stop19" />
    </linearGradient>
    <linearGradient
       id="r"
       x1="161.96001"
       x2="169.77"
       y1="71.499001"
       y2="34.026001"
       gradientUnits="userSpaceOnUse">
      <stop
         stop-color="#f3813b"
         offset="0"
         id="stop22" />
      <stop
         stop-color="#f3813b"
         stop-opacity="0"
         offset="1"
         id="stop24" />
    </linearGradient>
    <linearGradient
       id="q"
       x1="133.17999"
       x2="137.83"
       y1="106.68"
       y2="50.834999"
       gradientUnits="userSpaceOnUse">
      <stop
         stop-color="#f9a465"
         offset="0"
         id="stop27" />
      <stop
         stop-color="#f9a465"
         stop-opacity="0"
         offset="1"
         id="stop29" />
    </linearGradient>
    <linearGradient
       id="p"
       x1="113.47"
       x2="53.134998"
       y1="129.07001"
       y2="112.21"
       gradientUnits="userSpaceOnUse">
      <stop
         stop-color="#faa668"
         offset="0"
         id="stop32" />
      <stop
         stop-color="#faa668"
         stop-opacity="0"
         offset="1"
         id="stop34" />
    </linearGradient>
    <linearGradient
       id="o"
       x1="86.780998"
       x2="48.834999"
       y1="149.02"
       y2="176.10001"
       gradientUnits="userSpaceOnUse">
      <stop
         stop-color="#f17e39"
         offset="0"
         id="stop37" />
      <stop
         stop-color="#f17e39"
         stop-opacity="0"
         offset="1"
         id="stop39" />
    </linearGradient>
    <linearGradient
       id="n"
       x1="105.62"
       x2="100.83"
       y1="158.67999"
       y2="210.31"
       gradientUnits="userSpaceOnUse">
      <stop
         stop-color="#f67a34"
         offset="0"
         id="stop42" />
      <stop
         stop-color="#f67a34"
         stop-opacity="0"
         offset="1"
         id="stop44" />
    </linearGradient>
    <linearGradient
       id="k"
       x1="353.19"
       x2="205.58"
       y1="256.25"
       y2="137.09"
       gradientUnits="userSpaceOnUse">
      <stop
         stop-color="#9f410d"
         offset="0"
         id="stop47" />
      <stop
         stop-color="#9f410d"
         stop-opacity="0"
         offset="1"
         id="stop49" />
    </linearGradient>
    <linearGradient
       id="d"
       x1="6.1332998"
       x2="48.834999"
       y1="218.23"
       y2="179.92999"
       gradientUnits="userSpaceOnUse">
      <stop
         stop-color="#a3430e"
         offset="0"
         id="stop52" />
      <stop
         stop-color="#a3430e"
         stop-opacity="0"
         offset="1"
         id="stop54" />
    </linearGradient>
    <linearGradient
       id="m"
       x1="122.8"
       x2="164.94"
       y1="136.03999"
       y2="179.97"
       gradientUnits="userSpaceOnUse"
       xlink:href="#c" />
    <linearGradient
       id="l"
       x1="152.3"
       x2="201.74001"
       y1="104.79"
       y2="136.69"
       gradientUnits="userSpaceOnUse"
       xlink:href="#c" />
    <linearGradient
       id="j"
       x1="329.95999"
       x2="221.53999"
       y1="89.499001"
       y2="87.795998"
       gradientUnits="userSpaceOnUse"
       xlink:href="#a" />
    <linearGradient
       id="i"
       x1="212.81"
       x2="190.39999"
       y1="6.1826"
       y2="38.841"
       gradientUnits="userSpaceOnUse"
       xlink:href="#a" />
    <linearGradient
       id="h"
       x1="89.547997"
       x2="108.73"
       y1="14.649"
       y2="43.588001"
       gradientUnits="userSpaceOnUse"
       xlink:href="#a" />
    <linearGradient
       id="g"
       x1="16.051001"
       x2="55.066002"
       y1="94.339996"
       y2="112.21"
       gradientUnits="userSpaceOnUse"
       xlink:href="#a" />
    <linearGradient
       id="f"
       x1="249.78999"
       x2="152.59"
       y1="337.79001"
       y2="175.22"
       gradientUnits="userSpaceOnUse"
       xlink:href="#b" />
    <linearGradient
       id="e"
       x1="111.78"
       x2="104.43"
       y1="344.28"
       y2="217.46001"
       gradientUnits="userSpaceOnUse"
       xlink:href="#b" />
    <filter
       style="color-interpolation-filters:sRGB;"
       inkscape:label="Color Shift"
       id="filter1097">
      <feColorMatrix
         type="hueRotate"
         values="80"
         result="color1"
         id="feColorMatrix1093" />
      <feColorMatrix
         type="saturate"
         values="0.15625"
         result="color2"
         id="feColorMatrix1095" />
    </filter>
    <linearGradient
       inkscape:collect="always"
       xlink:href="#linearGradient1103"
       id="linearGradient1105"
       x1="-29.558348"
       y1="184.64022"
       x2="398.74985"
       y2="184.64022"
       gradientUnits="userSpaceOnUse" />
  </defs>
  <g
     transform="matrix(-1.4008605,0,0,1.4008605,508.59287,-8.6609601)"
     id="g117"
     style="filter:url(#filter1097);opacity:0.037;fill:url(#linearGradient1105);fill-opacity:1">
    <path
       transform="matrix(1.0459,0,0,1.0459,-141.15,-305.75)"
       d="m 482.08,468.87 a 170.625,170.625 0 1 1 -341.25,0 170.625,170.625 0 1 1 341.25,0 z"
       id="path67"
       inkscape:connector-curvature="0"
       style="fill:url(#linearGradient1105);fill-opacity:1" />
    <path
       d="m 129.41,119.31 -23.469,28.906 c 57.198,41.896 32.864,187.63 96.281,214 44.873,-4.4103 84.894,-25.47 113.78,-56.906 -57.831,-69.465 -117.64,-135.6 -186.59,-186 z"
       id="path69"
       inkscape:connector-curvature="0"
       style="fill:url(#linearGradient1105);fill-rule:evenodd;fill-opacity:1" />
    <path
       d="m 163.13,86.808 -25.281,25.281 c 83.763,71.008 136.76,130.5 182.34,187.19 l 0.75,0.4375 c 26.265,-31.078 42.094,-71.248 42.094,-115.09 0,-3.5452 -0.10825,-7.0682 -0.3125,-10.562 -31.716,-63.998 -150.87,-43.02 -199.59,-87.25 z"
       id="path71"
       inkscape:connector-curvature="0"
       style="fill:url(#linearGradient1105);fill-rule:evenodd;fill-opacity:1" />
    <path
       d="m 268.66,37.745 c -39.814,0.39787 -90.396,26.012 -95.314,40.656 1.6183,36.76 170.6,25.988 188.38,86.656 l 0.25,0.0312 c -5.5858,-51.195 -32.841,-95.909 -72.406,-124.75 -6.4612,-1.8769 -13.548,-2.6673 -20.906,-2.5938 z"
       id="path73"
       inkscape:connector-curvature="0"
       style="fill:url(#linearGradient1105);fill-rule:evenodd;fill-opacity:1" />
    <path
       d="m 184.6,6.1826 c -8.9543,0 -17.774,0.66237 -26.375,1.9375 -26.545,28.735 -12.38,54.549 1.875,62.438 12.166,8.6638 43.543,-45.581 122.22,-35.219 -28.08,-18.426 -61.647,-29.156 -97.719,-29.156 z"
       id="path75"
       inkscape:connector-curvature="0"
       style="fill:url(#linearGradient1105);fill-rule:evenodd;fill-opacity:1" />
    <path
       d="m 103.26,158.68 c -1.6266,0.0316 -3.3309,0.35874 -5.125,0.96875 -23.257,18.249 -65.801,106.07 -40.938,149.84 0.0053,0.005 -0.0053,0.0259 0,0.0312 32.392,33.03 77.525,53.531 127.41,53.531 1.3716,0 2.7295,-4.1e-4 4.0938,-0.0312 -53.736,-38.835 -42.038,-193.68 -85.437,-204.34 z"
       id="path77"
       inkscape:connector-curvature="0"
       style="fill:url(#linearGradient1105);fill-rule:evenodd;fill-opacity:1" />
    <path
       d="m 60.321,136.15 c -19.536,0.62007 -42.334,10.859 -53.062,33.125 l -0.5625,1.3438 c -0.35941,4.622 -0.5625,9.2863 -0.5625,14 0,44.145 16.068,84.554 42.656,115.72 -24.608,-77.249 50.267,-145.17 42.125,-152.72 -5.3816,-7.8001 -17.227,-11.893 -30.594,-11.469 z"
       id="path79"
       inkscape:connector-curvature="0"
       style="fill:url(#linearGradient1105);fill-rule:evenodd;fill-opacity:1" />
    <path
       d="m 54.665,62.37 c -25.212,26.784 -42.28,61.337 -47.125,99.688 18.967,-31.721 47.261,-43.234 93,-19.25 l 23.469,-29.5 C 108.685,99.482 76.368,75.608 54.665,62.37 Z"
       id="path81"
       inkscape:connector-curvature="0"
       style="fill:url(#linearGradient1105);fill-rule:evenodd;fill-opacity:1" />
    <path
       d="m 150.51,9.4326 c -34.957,6.7681 -66.283,23.757 -90.75,47.719 l 0.4375,0.78125 c 25.738,11.719 47.751,30.929 70.437,48.75 l 27.062,-25.281 c -17.633,-17.785 -31.238,-37.202 -7.1875,-71.969 z"
       id="path83"
       inkscape:connector-curvature="0"
       style="fill:url(#linearGradient1105);fill-rule:evenodd;fill-opacity:1" />
    <path
       d="m 268.66,37.745 c -39.814,0.39787 -90.396,26.012 -95.314,40.656 1.6183,36.76 170.6,25.988 188.38,86.656 l 0.25,0.0312 c -5.5858,-51.195 -32.841,-95.909 -72.406,-124.75 -6.4612,-1.8769 -13.548,-2.6673 -20.906,-2.5938 z"
       id="path85"
       style="fill:url(#linearGradient1105);fill-rule:evenodd;fill-opacity:1"
       inkscape:connector-curvature="0" />
    <path
       d="m 184.6,6.1826 c -8.9543,0 -17.774,0.66237 -26.375,1.9375 -26.545,28.735 -12.38,54.549 1.875,62.438 12.166,8.6638 43.543,-45.581 122.22,-35.219 -28.08,-18.426 -61.647,-29.156 -97.719,-29.156 z"
       id="path87"
       style="fill:url(#linearGradient1105);fill-rule:evenodd;fill-opacity:1"
       inkscape:connector-curvature="0" />
    <path
       d="m 150.51,9.4326 c -34.957,6.7681 -66.283,23.757 -90.75,47.719 l 0.4375,0.78125 c 25.738,11.719 47.751,30.929 70.437,48.75 l 27.062,-25.281 c -17.633,-17.785 -31.238,-37.202 -7.1875,-71.969 z"
       id="path89"
       style="fill:url(#linearGradient1105);fill-rule:evenodd;fill-opacity:1"
       inkscape:connector-curvature="0" />
    <path
       d="m 54.665,62.37 c -25.212,26.784 -42.28,61.337 -47.125,99.688 18.967,-31.721 47.261,-43.234 93,-19.25 l 23.469,-29.5 C 108.685,99.482 76.368,75.608 54.665,62.37 Z"
       id="path91"
       style="fill:url(#linearGradient1105);fill-rule:evenodd;fill-opacity:1"
       inkscape:connector-curvature="0" />
    <path
       d="m 60.321,136.15 c -19.536,0.62007 -42.334,10.859 -53.062,33.125 l -0.5625,1.3438 c -0.35941,4.622 -0.5625,9.2863 -0.5625,14 0,44.145 16.068,84.554 42.656,115.72 -24.608,-77.249 50.267,-145.17 42.125,-152.72 -5.3816,-7.8001 -17.227,-11.893 -30.594,-11.469 z"
       id="path93"
       style="fill:url(#linearGradient1105);fill-rule:evenodd;fill-opacity:1"
       inkscape:connector-curvature="0" />
    <path
       d="m 103.26,158.68 c -1.6266,0.0316 -3.3309,0.35874 -5.125,0.96875 -23.257,18.249 -65.801,106.07 -40.938,149.84 0.0053,0.005 -0.0053,0.0259 0,0.0312 32.392,33.03 77.525,53.531 127.41,53.531 1.3716,0 2.7295,-4.1e-4 4.0938,-0.0312 -53.736,-38.835 -42.038,-193.68 -85.437,-204.34 z"
       id="path95"
       style="fill:url(#linearGradient1105);fill-rule:evenodd;fill-opacity:1"
       inkscape:connector-curvature="0" />
    <path
       d="m 129.41,119.31 -23.469,28.906 c 57.198,41.896 32.864,187.63 96.281,214 44.873,-4.4103 84.894,-25.47 113.78,-56.906 -57.831,-69.465 -117.64,-135.6 -186.59,-186 z"
       id="path97"
       style="fill:url(#linearGradient1105);fill-rule:evenodd;fill-opacity:1"
       inkscape:connector-curvature="0" />
    <path
       d="m 163.13,86.808 -25.281,25.281 c 83.763,71.008 136.76,130.5 182.34,187.19 l 0.75,0.4375 c 26.265,-31.078 42.094,-71.248 42.094,-115.09 0,-3.5452 -0.10825,-7.0682 -0.3125,-10.562 -31.716,-63.998 -150.87,-43.02 -199.59,-87.25 z"
       id="path99"
       style="fill:url(#linearGradient1105);fill-rule:evenodd;fill-opacity:1"
       inkscape:connector-curvature="0" />
    <path
       d="m 163.13,86.808 -25.281,25.281 c 83.763,71.008 136.76,130.5 182.34,187.19 l 0.75,0.4375 c 26.265,-31.078 42.094,-71.248 42.094,-115.09 0,-3.5452 -0.10825,-7.0682 -0.3125,-10.562 -31.716,-63.998 -150.87,-43.02 -199.59,-87.25 z"
       id="path101"
       style="fill:url(#linearGradient1105);fill-rule:evenodd;fill-opacity:1"
       inkscape:connector-curvature="0" />
    <path
       d="m 268.66,37.745 c -39.814,0.39787 -90.396,26.012 -95.314,40.656 1.6183,36.76 170.6,25.988 188.38,86.656 l 0.25,0.0312 c -5.5858,-51.195 -32.841,-95.909 -72.406,-124.75 -6.4612,-1.8769 -13.548,-2.6673 -20.906,-2.5938 z"
       id="path103"
       style="fill:url(#linearGradient1105);fill-rule:evenodd;fill-opacity:1"
       inkscape:connector-curvature="0" />
    <path
       d="m 184.6,6.1826 c -8.9543,0 -17.774,0.66237 -26.375,1.9375 -26.545,28.735 -12.38,54.549 1.875,62.438 12.166,8.6638 43.543,-45.581 122.22,-35.219 -28.08,-18.426 -61.647,-29.156 -97.719,-29.156 z"
       id="path105"
       style="fill:url(#linearGradient1105);fill-rule:evenodd;fill-opacity:1"
       inkscape:connector-curvature="0" />
    <path
       d="m 150.51,9.4326 c -34.957,6.7681 -66.283,23.757 -90.75,47.719 l 0.4375,0.78125 c 25.738,11.719 47.751,30.929 70.437,48.75 l 27.062,-25.281 c -17.633,-17.785 -31.238,-37.202 -7.1875,-71.969 z"
       id="path107"
       style="fill:url(#linearGradient1105);fill-rule:evenodd;fill-opacity:1"
       inkscape:connector-curvature="0" />
    <path
       d="m 54.665,62.37 c -25.212,26.784 -42.28,61.337 -47.125,99.688 18.967,-31.721 47.261,-43.234 93,-19.25 l 23.469,-29.5 C 108.685,99.482 76.368,75.608 54.665,62.37 Z"
       id="path109"
       style="fill:url(#linearGradient1105);fill-rule:evenodd;fill-opacity:1"
       inkscape:connector-curvature="0" />
    <path
       d="m 129.41,119.31 -23.469,28.906 c 57.198,41.896 32.864,187.63 96.281,214 44.873,-4.4103 84.894,-25.47 113.78,-56.906 -57.831,-69.465 -117.64,-135.6 -186.59,-186 z"
       id="path111"
       style="fill:url(#linearGradient1105);fill-rule:evenodd;fill-opacity:1"
       inkscape:connector-curvature="0" />
    <path
       d="m 103.26,158.68 c -1.6266,0.0316 -3.3309,0.35874 -5.125,0.96875 -23.257,18.249 -65.801,106.07 -40.938,149.84 0.0053,0.005 -0.0053,0.0259 0,0.0312 32.392,33.03 77.525,53.531 127.41,53.531 1.3716,0 2.7295,-4.1e-4 4.0938,-0.0312 -53.736,-38.835 -42.038,-193.68 -85.437,-204.34 z"
       id="path113"
       style="fill:url(#linearGradient1105);fill-rule:evenodd;fill-opacity:1"
       inkscape:connector-curvature="0" />
    <path
       d="m 60.321,136.15 c -19.536,0.62007 -42.334,10.859 -53.062,33.125 l -0.5625,1.3438 c -0.35941,4.622 -0.5625,9.2863 -0.5625,14 0,44.145 16.068,84.554 42.656,115.72 -24.608,-77.249 50.267,-145.17 42.125,-152.72 -5.3816,-7.8001 -17.227,-11.893 -30.594,-11.469 z"
       id="path115"
       style="fill:url(#linearGradient1105);fill-rule:evenodd;fill-opacity:1"
       inkscape:connector-curvature="0" />
  </g>
</svg>
